<?xml version="1.0" encoding="iso-8859-1"?>
<!-- Generator: Adobe Illustrator 21.0.2, SVG Export Plug-In . SVG Version: 6.00 Build 0)  -->
<svg version="1.1" id="Layer_1" xmlns="http://www.w3.org/2000/svg" xmlns:xlink="http://www.w3.org/1999/xlink" x="0px" y="0px"
	 viewBox="0 0 40 40" style="enable-background:new 0 0 40 40;" xml:space="preserve">
<path style="fill:#FFFFFF;" d="M7.5,37.5v-35h18.293l8.707,8.707v24.05c0,1.237-1.006,2.243-2.243,2.243H7.5z"/>
<path style="fill:#4788C7;" d="M25.586,3L34,11.414v23.842C34,36.218,33.218,37,32.257,37H8V3H25.586 M26,2H7v36h25.257
	C33.772,38,35,36.772,35,35.257V11L26,2L26,2z"/>
<polygon style="fill:#DFF0FE;" points="25.5,11.5 25.5,2.5 25.793,2.5 34.5,11.207 34.5,11.5 "/>
<path style="fill:#4788C7;" d="M26,3.414L33.586,11H26V3.414 M26,2h-1v10h10v-1L26,2L26,2z"/>
<path style="fill:#FFFFFF;" d="M34,21l-8,4l-1,12l1,1h6.004C33.659,38,35,36.659,35,35.004V21H34z"/>
<polygon style="fill:#98CCFD;" points="25.113,31.5 29.5,31.5 29.5,24.5 34.5,24.5 34.5,31.5 38.887,31.5 32,39.247 "/>
<path style="fill:#4788C7;" d="M34,25v6v1h1h2.773L32,38.495L26.227,32H29h1v-1v-6H34 M35,24h-6v7h-5l8,9l8-9h-5V24L35,24z"/>
<path style="fill:#4788C7;" d="M34.5,19L34.5,19c0.275,0,0.5,0.225,0.5,0.5v2c0,0.275-0.225,0.5-0.5,0.5l0,0
	c-0.275,0-0.5-0.225-0.5-0.5v-2C34,19.225,34.225,19,34.5,19z"/>
<path style="fill:#4788C7;" d="M26.5,38h-3c-0.275,0-0.5-0.225-0.5-0.5l0,0c0-0.275,0.225-0.5,0.5-0.5h3c0.275,0,0.5,0.225,0.5,0.5
	l0,0C27,37.775,26.775,38,26.5,38z"/>
<path style="fill:#4788C7;" d="M13.5,28h13c0.275,0,0.5,0.225,0.5,0.5l0,0c0,0.275-0.225,0.5-0.5,0.5h-13
	c-0.275,0-0.5-0.225-0.5-0.5l0,0C13,28.225,13.225,28,13.5,28z"/>
<path style="fill:#4788C7;" d="M13.5,22h13c0.275,0,0.5,0.225,0.5,0.5l0,0c0,0.275-0.225,0.5-0.5,0.5h-13
	c-0.275,0-0.5-0.225-0.5-0.5l0,0C13,22.225,13.225,22,13.5,22z"/>
<path style="fill:#4788C7;" d="M13.5,16h15c0.275,0,0.5,0.225,0.5,0.5l0,0c0,0.275-0.225,0.5-0.5,0.5h-15
	c-0.275,0-0.5-0.225-0.5-0.5l0,0C13,16.225,13.225,16,13.5,16z"/>
<path style="fill:#4788C7;" d="M24.5,26h-11c-0.275,0-0.5-0.225-0.5-0.5l0,0c0-0.275,0.225-0.5,0.5-0.5h11
	c0.275,0,0.5,0.225,0.5,0.5l0,0C25,25.775,24.775,26,24.5,26z"/>
<path style="fill:#4788C7;" d="M24.5,20h-11c-0.275,0-0.5-0.225-0.5-0.5l0,0c0-0.275,0.225-0.5,0.5-0.5h11
	c0.275,0,0.5,0.225,0.5,0.5l0,0C25,19.775,24.775,20,24.5,20z"/>
</svg>
